<?xml version="1.0" standalone="no"?>
<!DOCTYPE svg PUBLIC "-//W3C//DTD SVG 20010904//EN"
 "http://www.w3.org/TR/2001/REC-SVG-20010904/DTD/svg10.dtd">
<svg version="1.0" xmlns="http://www.w3.org/2000/svg"
 width="260.000000pt" height="260.000000pt" viewBox="0 0 260.000000 260.000000"
 preserveAspectRatio="xMidYMid meet">
<metadata>
Created by potrace 1.14, written by Peter Selinger 2001-2017
</metadata>
<g transform="translate(0.000000,260.000000) scale(0.100000,-0.100000)"
fill="#000000" stroke="none">
<path d="M1140 2594 c-36 -6 -142 -25 -160 -30 -83 -19 -213 -65 -218 -76 -2
-5 -10 -8 -17 -8 -26 0 -209 -113 -284 -175 -224 -187 -394 -483 -444 -775
-15 -85 -16 -374 -2 -450 26 -145 61 -248 128 -383 170 -341 498 -589 889
-673 115 -25 407 -25 530 -1 511 102 901 489 1014 1006 26 115 27 389 3 517
-77 405 -324 735 -686 918 -81 40 -217 89 -293 105 -30 6 -66 14 -80 17 -30 7
-345 13 -380 8z"/>
</g>
</svg>
